<?xml version="1.0" encoding="UTF-8" standalone="no"?>
<svg
   id="Layer_1"
   data-name="Layer 1"
   viewBox="0 0 33.000001 33"
   version="1.1"
   sodipodi:docname="carbique-logo.svg"
   width="33"
   height="33"
   inkscape:version="1.3 (0e150ed, 2023-07-21)"
   xmlns:inkscape="http://www.inkscape.org/namespaces/inkscape"
   xmlns:sodipodi="http://sodipodi.sourceforge.net/DTD/sodipodi-0.dtd"
   xmlns="http://www.w3.org/2000/svg"
   xmlns:svg="http://www.w3.org/2000/svg">
  <sodipodi:namedview
     id="namedview19"
     pagecolor="#ffffff"
     bordercolor="#000000"
     borderopacity="0.25"
     inkscape:showpageshadow="2"
     inkscape:pageopacity="0.0"
     inkscape:pagecheckerboard="0"
     inkscape:deskcolor="#d1d1d1"
     inkscape:zoom="7.2365514"
     inkscape:cx="50.991139"
     inkscape:cy="0.96731159"
     inkscape:window-width="1392"
     inkscape:window-height="891"
     inkscape:window-x="0"
     inkscape:window-y="37"
     inkscape:window-maximized="0"
     inkscape:current-layer="Layer_1" />
  <defs
     id="defs7">
    <style
       id="style1">&#10;      .cls-1, .cls-2, .cls-3 {&#10;        fill-rule: evenodd;&#10;      }&#10;&#10;      .cls-1 {&#10;        fill: url(#linear-gradient);&#10;      }&#10;&#10;      .cls-2 {&#10;        fill: #a3aae8;&#10;      }&#10;&#10;      .cls-3, .cls-4 {&#10;        fill: #fff;&#10;      }&#10;&#10;      .cls-4 {&#10;        fill-opacity: 0.95;&#10;      }&#10;    </style>
    <linearGradient
       id="linear-gradient"
       x1="1.11"
       y1="26.57"
       x2="31.73"
       y2="8.5299997"
       gradientTransform="matrix(1,0,0,-1,0,34)"
       gradientUnits="userSpaceOnUse">
      <stop
         offset="0"
         stop-color="#06f"
         id="stop1" />
      <stop
         offset="0.15"
         stop-color="#00d1ff"
         id="stop2" />
      <stop
         offset="0.32"
         stop-color="#72ff71"
         id="stop3" />
      <stop
         offset="0.53"
         stop-color="#ffdf6b"
         id="stop4" />
      <stop
         offset="0.71"
         stop-color="#ff9533"
         id="stop5" />
      <stop
         offset="0.85"
         stop-color="#fa3535"
         id="stop6" />
      <stop
         offset="1"
         stop-color="#fa35ab"
         id="stop7" />
    </linearGradient>
  </defs>
  <path
     d="M 30.36,16.5 A 13.86,13.86 0 1 1 16.5,2.64 13.86,13.86 0 0 1 30.36,16.5 Z"
     id="path7" />
  <path
     class="cls-1"
     d="M 33,16.5 A 16.5,16.5 0 1 1 16.5,0 16.5,16.5 0 0 1 33,16.5 Z M 16.5,30.36 A 13.86,13.86 0 1 0 2.64,16.5 13.87,13.87 0 0 0 16.5,30.36 Z"
     id="path8"
     style="fill:url(#linear-gradient)" />
  <path
     class="cls-2"
     d="m 23.6,11.35 a 7.59,7.59 0 0 0 -2.68,-0.48 c -3.66,0 -6.63,2.53 -6.63,5.66 0,3.13 3,5.67 6.63,5.67 a 7.65,7.65 0 0 0 2.61,-0.46 8.29,8.29 0 1 1 0.07,-10.39 z"
     id="path9" />
  <path
     class="cls-3"
     d="m 17.52,8.06 c -3.57,-0.29 -6.29,2.57 -6.29,2.57 0,0 2.9,-0.48 4.59,0.37 A 9.8,9.8 0 0 1 19,14.43 v 0 a 2.84,2.84 0 0 0 2.36,1.26 2.86,2.86 0 0 0 1.93,-5 v 0 A 9.42,9.42 0 0 0 17.52,8.06 Z"
     id="path10" />
  <path
     class="cls-3"
     d="m 17.52,25 c -3.57,0.28 -6.29,-2.58 -6.29,-2.58 0,0 2.9,0.48 4.59,-0.37 A 9.8,9.8 0 0 0 19,18.57 v 0 a 2.83,2.83 0 0 1 2.36,-1.25 2.86,2.86 0 0 1 1.93,5 v 0 A 9.47,9.47 0 0 1 17.52,25 Z"
     id="path11" />
</svg>
